<svg xmlns="http://www.w3.org/2000/svg" xmlns:xlink="http://www.w3.org/1999/xlink" width="200" zoomAndPan="magnify" viewBox="0 0 150 149.999998" height="200" preserveAspectRatio="xMidYMid meet" version="1.0"><path fill="#000000" d="M 150 150 L 150 146.25 L 146.25 150 Z M 138.75 150 L 150 138.75 L 150 131.25 L 131.25 150 Z M 123.75 150 L 150 123.75 L 150 116.25 L 116.25 150 Z M 108.75 150 L 150 108.75 L 150 101.25 L 101.25 150 Z M 93.75 150 L 150 93.75 L 150 86.25 L 86.25 150 Z M 78.75 150 L 150 78.75 L 150 71.25 L 71.25 150 Z M 63.75 150 L 150 63.75 L 150 56.25 L 56.25 150 Z M 48.75 150 L 150 48.75 L 150 41.25 L 41.25 150 Z M 33.75 150 L 150 33.75 L 150 26.25 L 26.25 150 Z M 18.75 150 L 150 18.75 L 150 11.25 L 11.25 150 Z M 0 0 L 0 3.75 L 3.75 0 Z M 11.25 0 L 0 11.25 L 0 18.75 L 18.75 0 Z M 26.25 0 L 0 26.25 L 0 33.75 L 33.75 0 Z M 41.25 0 L 0 41.25 L 0 48.75 L 48.75 0 Z M 56.25 0 L 0 56.25 L 0 63.75 L 63.75 0 Z M 71.25 0 L 0 71.25 L 0 78.75 L 78.75 0 Z M 86.25 0 L 0 86.25 L 0 93.75 L 93.75 0 Z M 101.25 0 L 0 101.25 L 0 108.75 L 108.75 0 Z M 116.25 0 L 0 116.25 L 0 123.75 L 123.75 0 Z M 131.25 0 L 0 131.25 L 0 138.75 L 138.75 0 Z M 146.25 0 L 0 146.25 L 0 150 L 3.75 150 L 150 3.75 L 150 0 L 146.25 0 " fill-opacity="1" fill-rule="evenodd"/></svg>